<svg width="25" height="24" viewBox="0 0 25 24" fill="none" xmlns="http://www.w3.org/2000/svg">
<path d="M7.19995 9.26001L12.4999 12.33L17.7599 9.28001" stroke="#917246" stroke-opacity="0.8" stroke-width="1.5" stroke-linecap="round" stroke-linejoin="round"/>
<path d="M12.5 17.7701V12.3201" stroke="#917246" stroke-opacity="0.8" stroke-width="1.5" stroke-linecap="round" stroke-linejoin="round"/>
<path d="M11.26 6.28998L8.06 8.06998C7.34 8.46998 6.73999 9.47998 6.73999 10.31V13.7C6.73999 14.53 7.33 15.54 8.06 15.94L11.26 17.72C11.94 18.1 13.06 18.1 13.75 17.72L16.95 15.94C17.67 15.54 18.27 14.53 18.27 13.7V10.3C18.27 9.46998 17.68 8.45998 16.95 8.05998L13.75 6.27998C13.06 5.89998 11.94 5.89998 11.26 6.28998Z" stroke="#917246" stroke-opacity="0.8" stroke-width="1.5" stroke-linecap="round" stroke-linejoin="round"/>
<path d="M22.5 15C22.5 18.87 19.37 22 15.5 22L16.55 20.25" stroke="#917246" stroke-opacity="0.8" stroke-width="1.5" stroke-linecap="round" stroke-linejoin="round"/>
<path d="M2.5 9C2.5 5.13 5.63 2 9.5 2L8.45001 3.75" stroke="#917246" stroke-opacity="0.8" stroke-width="1.5" stroke-linecap="round" stroke-linejoin="round"/>
</svg>
