<svg width="25" height="24" viewBox="0 0 25 24" fill="none" xmlns="http://www.w3.org/2000/svg">
<path d="M12.5 20.5H7.5C4.5 20.5 2.5 19 2.5 15.5V8.5C2.5 5 4.5 3.5 7.5 3.5H17.5C20.5 3.5 22.5 5 22.5 8.5V11.5" stroke="#917246" stroke-opacity="0.8" stroke-width="1.5" stroke-miterlimit="10" stroke-linecap="round" stroke-linejoin="round"/>
<path d="M17.5 9L14.37 11.5C13.34 12.32 11.65 12.32 10.62 11.5L7.5 9" stroke="#917246" stroke-opacity="0.8" stroke-width="1.5" stroke-miterlimit="10" stroke-linecap="round" stroke-linejoin="round"/>
<path d="M19.71 14.77L16.1701 18.31C16.0301 18.45 15.9 18.71 15.87 18.9L15.68 20.25C15.61 20.74 15.95 21.0801 16.44 21.0101L17.79 20.82C17.98 20.79 18.25 20.66 18.38 20.52L21.9201 16.9801C22.5301 16.3701 22.8201 15.6601 21.9201 14.7601C21.0301 13.8701 20.32 14.16 19.71 14.77Z" stroke="#917246" stroke-opacity="0.8" stroke-width="1.5" stroke-miterlimit="10" stroke-linecap="round" stroke-linejoin="round"/>
<path d="M19.2 15.28C19.5 16.36 20.34 17.2 21.42 17.5" stroke="#917246" stroke-opacity="0.8" stroke-width="1.5" stroke-miterlimit="10" stroke-linecap="round" stroke-linejoin="round"/>
</svg>
