<svg width="49" height="44" viewBox="0 0 49 44" fill="none" xmlns="http://www.w3.org/2000/svg">
<path d="M28.75 19.5C29.4404 19.5 30 20.0596 30 20.75C30 21.4404 29.4404 22 28.75 22C28.0596 22 27.5 21.4404 27.5 20.75C27.5 20.0596 28.0596 19.5 28.75 19.5Z" fill="#222831" stroke="#222831"/>
<path d="M20.75 19.5C21.4404 19.5 22 20.0596 22 20.75C22 21.4404 21.4404 22 20.75 22C20.0596 22 19.5 21.4404 19.5 20.75C19.5 20.0596 20.0596 19.5 20.75 19.5Z" fill="#222831" stroke="#222831"/>
<path d="M14.5 1.75H16.2402C16.7457 1.75006 17.245 1.94131 17.6357 2.2793L17.7959 2.43359C18.0078 2.67662 18.1577 2.9644 18.2471 3.27441L18.2822 3.41113L18.3711 3.7998H31.0596C32.4487 3.7998 33.519 4.85077 33.5576 6.2002L33.5518 6.47363V6.47461C33.5407 6.62829 33.4122 6.75 33.25 6.75H17.9404C17.7771 6.75 17.6572 6.63597 17.6396 6.49414L17.6387 6.43262V6.43066L17.8379 3.98047L17.3398 3.94043L17.8389 3.98047V3.97266C17.8637 3.5879 17.758 3.20608 17.5264 2.89258L17.4189 2.7627L17.4121 2.75488L17.2939 2.64258C17.0061 2.39513 16.6355 2.25006 16.2402 2.25H14.5C14.3661 2.25 14.25 2.13386 14.25 2C14.25 1.86614 14.3661 1.75 14.5 1.75Z" fill="#222831" stroke="#222831"/>
<path d="M17.6699 9.25H33.0098C33.1694 9.25 33.2841 9.36067 33.3008 9.49707L33.3018 9.55664V9.56445L32.9717 14.2334C32.8808 15.4733 31.7769 16.5 30.54 16.5H19.4199C18.0927 16.4999 17.0327 15.4379 17.001 14.1348L17.0088 13.8711L17.3672 9.52734L17.3682 9.52832C17.384 9.36783 17.5142 9.25007 17.6699 9.25Z" fill="#222831" stroke="#222831"/>
<path d="M20.8272 37.1811H19.4991C19.4612 36.9633 19.3914 36.7704 19.2896 36.6023C19.1878 36.4318 19.0611 36.2874 18.9096 36.169C18.7581 36.0507 18.5853 35.9619 18.3912 35.9027C18.1994 35.8411 17.9922 35.8104 17.7697 35.8104C17.3743 35.8104 17.024 35.9098 16.7186 36.1087C16.4132 36.3052 16.1741 36.594 16.0012 36.9751C15.8284 37.3539 15.742 37.8168 15.742 38.3636C15.742 38.92 15.8284 39.3887 16.0012 39.7699C16.1764 40.1487 16.4155 40.4351 16.7186 40.6293C17.024 40.821 17.3732 40.9169 17.7662 40.9169C17.984 40.9169 18.1876 40.8885 18.377 40.8317C18.5687 40.7725 18.7404 40.6861 18.8919 40.5724C19.0458 40.4588 19.1748 40.3191 19.2789 40.1534C19.3855 39.9877 19.4589 39.7983 19.4991 39.5852L20.8272 39.5923C20.7775 39.938 20.6698 40.2623 20.5041 40.5653C20.3407 40.8684 20.1265 41.1359 19.8613 41.3679C19.5962 41.5975 19.286 41.7775 18.9309 41.9077C18.5758 42.0355 18.1816 42.0994 17.7484 42.0994C17.1092 42.0994 16.5386 41.9515 16.0368 41.6555C15.5349 41.3596 15.1395 40.9323 14.8507 40.3736C14.5618 39.8149 14.4174 39.1449 14.4174 38.3636C14.4174 37.58 14.563 36.91 14.8542 36.3537C15.1454 35.795 15.542 35.3677 16.0439 35.0717C16.5458 34.7758 17.1139 34.6278 17.7484 34.6278C18.1532 34.6278 18.5297 34.6847 18.8777 34.7983C19.2257 34.9119 19.5358 35.0788 19.8081 35.299C20.0803 35.5168 20.304 35.7843 20.4792 36.1016C20.6568 36.4164 20.7728 36.7763 20.8272 37.1811ZM23.5465 42.1101C23.2009 42.1101 22.8896 42.0485 22.6126 41.9254C22.3379 41.8 22.1201 41.6153 21.9592 41.3714C21.8005 41.1276 21.7212 40.8269 21.7212 40.4695C21.7212 40.1617 21.7781 39.9072 21.8917 39.706C22.0053 39.5047 22.1604 39.3438 22.3569 39.223C22.5534 39.1023 22.7747 39.0111 23.021 38.9496C23.2695 38.8857 23.5264 38.8395 23.7915 38.8111C24.1112 38.7779 24.3704 38.7483 24.5692 38.7223C24.7681 38.6939 24.9125 38.6513 25.0025 38.5945C25.0948 38.5353 25.141 38.4441 25.141 38.321V38.2997C25.141 38.0322 25.0617 37.825 24.9031 37.6783C24.7444 37.5315 24.516 37.4581 24.2177 37.4581C23.9028 37.4581 23.6531 37.5268 23.4684 37.6641C23.2861 37.8014 23.163 37.9635 23.0991 38.1506L21.8988 37.9801C21.9935 37.6487 22.1497 37.3717 22.3675 37.1491C22.5853 36.9242 22.8517 36.7562 23.1665 36.6449C23.4814 36.5312 23.8294 36.4744 24.2106 36.4744C24.4734 36.4744 24.735 36.5052 24.9954 36.5668C25.2558 36.6283 25.4937 36.7301 25.7092 36.8722C25.9246 37.0118 26.0974 37.2024 26.2276 37.4439C26.3602 37.6854 26.4265 37.9872 26.4265 38.3494V42H25.1907V41.2507H25.1481C25.07 41.4022 24.9599 41.5443 24.8178 41.6768C24.6781 41.8071 24.5018 41.9124 24.2887 41.9929C24.078 42.071 23.8306 42.1101 23.5465 42.1101ZM23.8803 41.1655C24.1384 41.1655 24.3621 41.1146 24.5515 41.0128C24.7409 40.9086 24.8865 40.7713 24.9883 40.6009C25.0924 40.4304 25.1445 40.2446 25.1445 40.0433V39.4006C25.1043 39.4337 25.0356 39.4645 24.9386 39.4929C24.8439 39.5213 24.7373 39.5462 24.619 39.5675C24.5006 39.5888 24.3834 39.6077 24.2674 39.6243C24.1514 39.6409 24.0508 39.6551 23.9656 39.6669C23.7738 39.6929 23.6022 39.7356 23.4506 39.7947C23.2991 39.8539 23.1796 39.9368 23.092 40.0433C23.0044 40.1475 22.9606 40.2824 22.9606 40.4482C22.9606 40.6849 23.047 40.8636 23.2198 40.9844C23.3926 41.1051 23.6128 41.1655 23.8803 41.1655ZM27.7191 42V36.5455H28.9656V37.4545H29.0224C29.1218 37.1397 29.2923 36.897 29.5337 36.7266C29.7776 36.5537 30.0558 36.4673 30.3683 36.4673C30.4393 36.4673 30.5186 36.4709 30.6062 36.478C30.6961 36.4827 30.7707 36.491 30.8299 36.5028V37.6854C30.7754 37.6664 30.689 37.6499 30.5707 37.6357C30.4547 37.6191 30.3422 37.6108 30.2333 37.6108C29.9989 37.6108 29.7882 37.6617 29.6012 37.7635C29.4165 37.8629 29.271 38.0014 29.1644 38.179C29.0579 38.3565 29.0046 38.5613 29.0046 38.7933V42H27.7191ZM34.7006 36.5455V37.5398H31.565V36.5455H34.7006ZM32.3391 35.2386H33.6246V40.3594C33.6246 40.5322 33.6507 40.6648 33.7028 40.7571C33.7572 40.8471 33.8282 40.9086 33.9158 40.9418C34.0034 40.9749 34.1005 40.9915 34.207 40.9915C34.2875 40.9915 34.3609 40.9856 34.4272 40.9737C34.4959 40.9619 34.5479 40.9512 34.5835 40.9418L34.8001 41.9467C34.7314 41.9704 34.6332 41.9964 34.5053 42.0249C34.3799 42.0533 34.226 42.0698 34.0437 42.0746C33.7217 42.084 33.4317 42.0355 33.1737 41.929C32.9156 41.8201 32.7108 41.652 32.5593 41.4247C32.4102 41.1974 32.3368 40.9134 32.3391 40.5724V35.2386Z" fill="#222831"/>
</svg>
