<svg width="49" height="44" viewBox="0 0 49 44" fill="none" xmlns="http://www.w3.org/2000/svg">
<path d="M22.543 3.14941C23.5596 2.33305 25.153 2.28692 26.2549 3.00684L26.4688 3.16113L33.0137 8.39648V8.39746C33.3916 8.70556 33.7196 9.18882 33.9307 9.74121C34.1407 10.2911 34.2189 10.8673 34.1465 11.3477L32.8877 18.8848C32.6386 20.3182 31.2435 21.5 29.7998 21.5H19.2002C17.827 21.5 16.5431 20.4867 16.1826 19.1641L16.123 18.8955L14.8633 11.3574V11.3564L14.8398 11.1709C14.8017 10.7279 14.8806 10.2244 15.0645 9.74219C15.2483 9.2601 15.5247 8.83066 15.8496 8.52441L15.9922 8.40039L22.543 3.15039V3.14941ZM24.5 13.75C23.8139 13.75 23.25 14.3139 23.25 15V18C23.25 18.6861 23.8139 19.25 24.5 19.25C25.1861 19.25 25.75 18.6861 25.75 18V15C25.75 14.3139 25.1861 13.75 24.5 13.75Z" fill="#222831" stroke="#222831"/>
<path d="M11.0035 42V34.7273H12.3209V37.8061H15.691V34.7273H17.012V42H15.691V38.9105H12.3209V42H11.0035ZM20.7673 42.1065C20.2346 42.1065 19.773 41.9893 19.3824 41.755C18.9917 41.5206 18.6887 41.1927 18.4733 40.7713C18.2602 40.3499 18.1537 39.8575 18.1537 39.294C18.1537 38.7306 18.2602 38.237 18.4733 37.8132C18.6887 37.3894 18.9917 37.0604 19.3824 36.826C19.773 36.5916 20.2346 36.4744 20.7673 36.4744C21.3 36.4744 21.7616 36.5916 22.1523 36.826C22.5429 37.0604 22.8447 37.3894 23.0578 37.8132C23.2732 38.237 23.3809 38.7306 23.3809 39.294C23.3809 39.8575 23.2732 40.3499 23.0578 40.7713C22.8447 41.1927 22.5429 41.5206 22.1523 41.755C21.7616 41.9893 21.3 42.1065 20.7673 42.1065ZM20.7744 41.0767C21.0632 41.0767 21.3047 40.9974 21.4988 40.8388C21.693 40.6778 21.8374 40.4624 21.9321 40.1925C22.0291 39.9226 22.0777 39.6219 22.0777 39.2905C22.0777 38.9567 22.0291 38.6548 21.9321 38.3849C21.8374 38.1127 21.693 37.8961 21.4988 37.7351C21.3047 37.5741 21.0632 37.4936 20.7744 37.4936C20.4785 37.4936 20.2323 37.5741 20.0358 37.7351C19.8416 37.8961 19.6961 38.1127 19.599 38.3849C19.5043 38.6548 19.4569 38.9567 19.4569 39.2905C19.4569 39.6219 19.5043 39.9226 19.599 40.1925C19.6961 40.4624 19.8416 40.6778 20.0358 40.8388C20.2323 40.9974 20.4785 41.0767 20.7744 41.0767ZM24.472 42V36.5455H25.7007V37.4723H25.7646C25.8783 37.1598 26.0665 36.916 26.3293 36.7408C26.5921 36.5632 26.9057 36.4744 27.2703 36.4744C27.6396 36.4744 27.951 36.5644 28.2043 36.7443C28.46 36.9219 28.6399 37.1645 28.7441 37.4723H28.8009C28.9216 37.1693 29.1252 36.9278 29.4117 36.7479C29.7005 36.5656 30.0426 36.4744 30.4379 36.4744C30.9398 36.4744 31.3494 36.633 31.6666 36.9503C31.9839 37.2675 32.1425 37.7304 32.1425 38.3388V42H30.8534V38.5376C30.8534 38.1991 30.7635 37.9517 30.5835 37.7955C30.4036 37.6368 30.1834 37.5575 29.923 37.5575C29.6129 37.5575 29.3702 37.6546 29.195 37.8487C29.0222 38.0405 28.9358 38.2902 28.9358 38.598V42H27.6752V38.4844C27.6752 38.2027 27.5899 37.9777 27.4195 37.8097C27.2514 37.6416 27.0312 37.5575 26.759 37.5575C26.5743 37.5575 26.4062 37.6049 26.2547 37.6996C26.1032 37.7919 25.9825 37.9233 25.8925 38.0938C25.8025 38.2618 25.7575 38.4583 25.7575 38.6832V42H24.472ZM35.8614 42.1065C35.3145 42.1065 34.8422 41.9929 34.4445 41.7656C34.0492 41.536 33.7449 41.2116 33.5319 40.7926C33.3188 40.3712 33.2123 39.8752 33.2123 39.3047C33.2123 38.7436 33.3188 38.2512 33.5319 37.8274C33.7473 37.4013 34.048 37.0698 34.4339 36.8331C34.8198 36.594 35.2731 36.4744 35.7939 36.4744C36.1301 36.4744 36.4474 36.5289 36.7456 36.6378C37.0463 36.7443 37.3115 36.91 37.5411 37.1349C37.7731 37.3598 37.9554 37.6463 38.088 37.9943C38.2206 38.34 38.2868 38.7519 38.2868 39.2301V39.6243H33.816V38.7578H37.0546C37.0522 38.5116 36.999 38.2926 36.8948 38.1009C36.7906 37.9067 36.645 37.754 36.458 37.6428C36.2733 37.5315 36.0579 37.4759 35.8117 37.4759C35.5489 37.4759 35.3181 37.5398 35.1192 37.6676C34.9204 37.7931 34.7653 37.9588 34.654 38.1648C34.5451 38.3684 34.4895 38.5921 34.4871 38.8359V39.5923C34.4871 39.9096 34.5451 40.1818 34.6611 40.4091C34.7771 40.634 34.9393 40.8068 35.1476 40.9276C35.356 41.0459 35.5998 41.1051 35.8792 41.1051C36.0662 41.1051 36.2355 41.0791 36.387 41.027C36.5385 40.9725 36.6699 40.8932 36.7812 40.7891C36.8924 40.6849 36.9765 40.5559 37.0333 40.402L38.2336 40.5369C38.1578 40.8542 38.0134 41.1312 37.8003 41.3679C37.5896 41.6023 37.3198 41.7846 36.9907 41.9148C36.6616 42.0426 36.2852 42.1065 35.8614 42.1065Z" fill="#222831"/>
</svg>
