<svg width="49" height="44" viewBox="0 0 49 44" fill="none" xmlns="http://www.w3.org/2000/svg">
<path d="M24.0667 2.51721C25.2406 2.40745 26.3689 2.74876 27.2668 3.48694L27.4426 3.63928L27.4456 3.64124C28.3592 4.46539 28.8801 5.6506 28.8801 6.88049V8.08948L29.3264 8.13733C30.653 8.27946 31.5275 8.67685 32.0862 9.29163V9.2926C32.8911 10.1983 32.9014 11.437 32.7942 12.4078L32.094 17.9977L32.093 18.0065C31.9921 18.9388 31.7596 19.7803 31.1243 20.4C30.4924 21.0161 29.3701 21.4996 27.2903 21.4996H21.7102C19.6297 21.4996 18.507 21.0163 17.8752 20.399C17.3192 19.8558 17.0722 19.1416 16.9514 18.3434L16.9075 17.9967L16.9065 17.9879L16.2063 12.4176C16.0986 11.4325 16.1007 10.1983 16.9124 9.29456L16.9114 9.29358C17.47 8.67754 18.345 8.27965 19.6731 8.13733L20.1204 8.08948V7.06018C20.1204 4.79945 21.9521 2.72196 24.0676 2.51819L24.0667 2.51721ZM20.9104 10.65C20.0843 10.65 19.4104 11.3239 19.4104 12.15C19.4104 12.9762 20.0843 13.65 20.9104 13.65H20.9202C21.7462 13.6499 22.4202 12.9761 22.4202 12.15C22.4202 11.3208 21.7431 10.6502 20.9104 10.65ZM27.9104 10.65C27.0843 10.65 26.4104 11.3239 26.4104 12.15C26.4104 12.9762 27.0843 13.65 27.9104 13.65H27.9202C28.7462 13.6499 29.4202 12.9761 29.4202 12.15C29.4202 11.3208 28.7431 10.6502 27.9104 10.65ZM24.3274 2.89807L24.1155 2.91174L24.1125 2.91272C23.1198 3.00729 22.2207 3.55397 21.5764 4.30139C20.9314 5.04975 20.51 6.03499 20.51 7.06018V8.07971H28.4895V6.88049C28.4895 5.83146 28.0787 4.82022 27.3381 4.07483L27.1858 3.92932C26.3927 3.21126 25.3859 2.85548 24.3274 2.89807Z" fill="#222831" stroke="#222831"/>
<path d="M3.40581 42V34.7273H6.13308C6.69179 34.7273 7.16054 34.8314 7.53933 35.0398C7.92048 35.2481 8.20813 35.5346 8.40226 35.8991C8.59875 36.2614 8.697 36.6733 8.697 37.1349C8.697 37.6013 8.59875 38.0156 8.40226 38.3778C8.20576 38.7401 7.91575 39.0253 7.53223 39.2337C7.1487 39.4396 6.6764 39.5426 6.11532 39.5426H4.30779V38.4595H5.93777C6.26447 38.4595 6.53199 38.4027 6.74032 38.2891C6.94866 38.1754 7.10254 38.0192 7.20197 37.8203C7.30377 37.6214 7.35467 37.393 7.35467 37.1349C7.35467 36.8769 7.30377 36.6496 7.20197 36.4531C7.10254 36.2566 6.94747 36.1039 6.73677 35.995C6.52844 35.8838 6.25974 35.8281 5.93066 35.8281H4.72328V42H3.40581ZM9.78453 42V36.5455H11.031V37.4545H11.0878C11.1872 37.1397 11.3577 36.897 11.5992 36.7266C11.843 36.5537 12.1212 36.4673 12.4337 36.4673C12.5047 36.4673 12.584 36.4709 12.6716 36.478C12.7616 36.4827 12.8361 36.491 12.8953 36.5028V37.6854C12.8409 37.6664 12.7545 37.6499 12.6361 37.6357C12.5201 37.6191 12.4076 37.6108 12.2987 37.6108C12.0644 37.6108 11.8537 37.6617 11.6666 37.7635C11.482 37.8629 11.3364 38.0014 11.2298 38.179C11.1233 38.3565 11.07 38.5613 11.07 38.7933V42H9.78453ZM15.904 42.1065C15.3714 42.1065 14.9097 41.9893 14.5191 41.755C14.1285 41.5206 13.8254 41.1927 13.61 40.7713C13.3969 40.3499 13.2904 39.8575 13.2904 39.294C13.2904 38.7306 13.3969 38.237 13.61 37.8132C13.8254 37.3894 14.1285 37.0604 14.5191 36.826C14.9097 36.5916 15.3714 36.4744 15.904 36.4744C16.4367 36.4744 16.8983 36.5916 17.289 36.826C17.6796 37.0604 17.9814 37.3894 18.1945 37.8132C18.4099 38.237 18.5177 38.7306 18.5177 39.294C18.5177 39.8575 18.4099 40.3499 18.1945 40.7713C17.9814 41.1927 17.6796 41.5206 17.289 41.755C16.8983 41.9893 16.4367 42.1065 15.904 42.1065ZM15.9111 41.0767C16.2 41.0767 16.4414 40.9974 16.6356 40.8388C16.8297 40.6778 16.9741 40.4624 17.0688 40.1925C17.1659 39.9226 17.2144 39.6219 17.2144 39.2905C17.2144 38.9567 17.1659 38.6548 17.0688 38.3849C16.9741 38.1127 16.8297 37.8961 16.6356 37.7351C16.4414 37.5741 16.2 37.4936 15.9111 37.4936C15.6152 37.4936 15.369 37.5741 15.1725 37.7351C14.9784 37.8961 14.8328 38.1127 14.7357 38.3849C14.641 38.6548 14.5937 38.9567 14.5937 39.2905C14.5937 39.6219 14.641 39.9226 14.7357 40.1925C14.8328 40.4624 14.9784 40.6778 15.1725 40.8388C15.369 40.9974 15.6152 41.0767 15.9111 41.0767ZM21.6329 42.0959C21.2044 42.0959 20.8209 41.9858 20.4823 41.7656C20.1438 41.5455 19.8763 41.2259 19.6798 40.8068C19.4833 40.3878 19.385 39.8788 19.385 39.2798C19.385 38.6738 19.4845 38.1624 19.6833 37.7457C19.8846 37.3267 20.1556 37.0107 20.4965 36.7976C20.8374 36.5821 21.2174 36.4744 21.6365 36.4744C21.9561 36.4744 22.2188 36.5289 22.4248 36.6378C22.6308 36.7443 22.7941 36.8733 22.9149 37.0249C23.0356 37.174 23.1291 37.3149 23.1954 37.4474H23.2487V34.7273H24.5377V42H23.2735V41.1406H23.1954C23.1291 41.2732 23.0332 41.4141 22.9078 41.5632C22.7823 41.71 22.6166 41.8355 22.4106 41.9396C22.2046 42.0438 21.9454 42.0959 21.6329 42.0959ZM21.9916 41.0412C22.2638 41.0412 22.4958 40.9678 22.6876 40.821C22.8794 40.6719 23.0249 40.4647 23.1244 40.1996C23.2238 39.9344 23.2735 39.6255 23.2735 39.2727C23.2735 38.92 23.2238 38.6134 23.1244 38.353C23.0273 38.0926 22.8829 37.8902 22.6911 37.7457C22.5017 37.6013 22.2686 37.5291 21.9916 37.5291C21.7051 37.5291 21.466 37.6037 21.2742 37.7528C21.0825 37.902 20.9381 38.108 20.841 38.3707C20.7439 38.6335 20.6954 38.9342 20.6954 39.2727C20.6954 39.6136 20.7439 39.9179 20.841 40.1854C20.9404 40.4505 21.086 40.66 21.2778 40.8139C21.4719 40.9654 21.7098 41.0412 21.9916 41.0412ZM29.3841 39.706V36.5455H30.6697V42H29.4232V41.0305H29.3664C29.2433 41.3359 29.0409 41.5857 28.7591 41.7798C28.4798 41.974 28.1353 42.071 27.7258 42.071C27.3683 42.071 27.0522 41.9917 26.7776 41.8331C26.5054 41.6721 26.2923 41.4389 26.1384 41.1335C25.9845 40.8258 25.9076 40.4541 25.9076 40.0185V36.5455H27.1931V39.8196C27.1931 40.1652 27.2878 40.4399 27.4772 40.6435C27.6666 40.8471 27.9152 40.9489 28.2229 40.9489C28.4123 40.9489 28.5958 40.9027 28.7733 40.8104C28.9509 40.718 29.0965 40.5807 29.2101 40.3984C29.3261 40.2138 29.3841 39.983 29.3841 39.706ZM34.3708 42.1065C33.8263 42.1065 33.3588 41.987 32.9681 41.7479C32.5799 41.5088 32.2804 41.1785 32.0697 40.7571C31.8614 40.3333 31.7572 39.8456 31.7572 39.294C31.7572 38.7401 31.8637 38.2512 32.0768 37.8274C32.2899 37.4013 32.5905 37.0698 32.9788 36.8331C33.3694 36.594 33.8311 36.4744 34.3637 36.4744C34.8064 36.4744 35.1982 36.5561 35.5392 36.7195C35.8824 36.8804 36.1559 37.1089 36.3595 37.4048C36.5631 37.6984 36.6791 38.0417 36.7075 38.4347H35.4788C35.4291 38.1719 35.3107 37.9529 35.1237 37.7777C34.939 37.6001 34.6916 37.5114 34.3815 37.5114C34.1187 37.5114 33.8879 37.5824 33.689 37.7244C33.4901 37.8641 33.3351 38.0653 33.2238 38.3281C33.1149 38.5909 33.0605 38.9058 33.0605 39.2727C33.0605 39.6444 33.1149 39.964 33.2238 40.2315C33.3327 40.4967 33.4854 40.7015 33.6819 40.8459C33.8808 40.9879 34.114 41.0589 34.3815 41.0589C34.5709 41.0589 34.7401 41.0234 34.8893 40.9524C35.0408 40.879 35.1675 40.7737 35.2693 40.6364C35.3711 40.4991 35.4409 40.3321 35.4788 40.1357H36.7075C36.6767 40.5215 36.5631 40.8636 36.3666 41.1619C36.1701 41.4579 35.9026 41.6899 35.564 41.858C35.2255 42.0237 34.8277 42.1065 34.3708 42.1065ZM40.4868 36.5455V37.5398H37.3511V36.5455H40.4868ZM38.1253 35.2386H39.4108V40.3594C39.4108 40.5322 39.4368 40.6648 39.4889 40.7571C39.5434 40.8471 39.6144 40.9086 39.702 40.9418C39.7896 40.9749 39.8866 40.9915 39.9932 40.9915C40.0737 40.9915 40.147 40.9856 40.2133 40.9737C40.282 40.9619 40.3341 40.9512 40.3696 40.9418L40.5862 41.9467C40.5175 41.9704 40.4193 41.9964 40.2915 42.0249C40.166 42.0533 40.0121 42.0698 39.8298 42.0746C39.5078 42.084 39.2178 42.0355 38.9598 41.929C38.7017 41.8201 38.497 41.652 38.3454 41.4247C38.1963 41.1974 38.1229 40.9134 38.1253 40.5724V35.2386ZM45.7948 37.9872L44.623 38.1151C44.5898 37.9967 44.5318 37.8854 44.449 37.7812C44.3685 37.6771 44.2596 37.593 44.1222 37.5291C43.9849 37.4652 43.8169 37.4332 43.618 37.4332C43.3505 37.4332 43.1256 37.4912 42.9433 37.6072C42.7633 37.7232 42.6746 37.8736 42.6769 38.0582C42.6746 38.2169 42.7326 38.3459 42.8509 38.4453C42.9717 38.5447 43.1705 38.6264 43.4475 38.6903L44.3779 38.8892C44.894 39.0005 45.2776 39.1768 45.5285 39.4183C45.7818 39.6598 45.9097 39.9759 45.912 40.3665C45.9097 40.7098 45.809 41.0128 45.6102 41.2756C45.4137 41.536 45.1402 41.7396 44.7899 41.8864C44.4395 42.0331 44.037 42.1065 43.5825 42.1065C42.9149 42.1065 42.3775 41.9669 41.9703 41.6875C41.5631 41.4058 41.3204 41.014 41.2423 40.5121L42.4958 40.3913C42.5526 40.6375 42.6734 40.8234 42.858 40.9489C43.0427 41.0743 43.283 41.1371 43.5789 41.1371C43.8843 41.1371 44.1294 41.0743 44.314 40.9489C44.501 40.8234 44.5945 40.6683 44.5945 40.4837C44.5945 40.3274 44.5342 40.1984 44.4134 40.0966C44.2951 39.9948 44.1104 39.9167 43.8595 39.8622L42.9291 39.6669C42.4059 39.558 42.0188 39.3745 41.7678 39.1165C41.5169 38.8561 41.3926 38.527 41.395 38.1293C41.3926 37.7931 41.4838 37.5019 41.6684 37.2557C41.8554 37.0071 42.1147 36.8153 42.4461 36.6804C42.7799 36.5431 43.1646 36.4744 43.6002 36.4744C44.2394 36.4744 44.7425 36.6106 45.1095 36.8828C45.4788 37.1551 45.7072 37.5232 45.7948 37.9872Z" fill="#222831"/>
</svg>
