<svg width="49" height="44" viewBox="0 0 49 44" fill="none" xmlns="http://www.w3.org/2000/svg">
<path d="M24.5 2.5C26.9853 2.5 29 4.51472 29 7C29 9.48528 26.9853 11.5 24.5 11.5C22.0147 11.5 20 9.48528 20 7C20 4.51472 22.0147 2.5 24.5 2.5Z" fill="#222831" stroke="#222831"/>
<path d="M24.4999 15C29.3283 15 33.0897 18.222 33.0897 22H15.91C15.91 18.2221 19.6716 15.0001 24.4999 15Z" fill="#222831" stroke="#222831"/>
<path d="M9.63139 42V34.7273H12.3587C12.9174 34.7273 13.3861 34.8314 13.7649 35.0398C14.1461 35.2481 14.4337 35.5346 14.6278 35.8991C14.8243 36.2614 14.9226 36.6733 14.9226 37.1349C14.9226 37.6013 14.8243 38.0156 14.6278 38.3778C14.4313 38.7401 14.1413 39.0253 13.7578 39.2337C13.3743 39.4396 12.902 39.5426 12.3409 39.5426H10.5334V38.4595H12.1634C12.4901 38.4595 12.7576 38.4027 12.9659 38.2891C13.1742 38.1754 13.3281 38.0192 13.4276 37.8203C13.5294 37.6214 13.5803 37.393 13.5803 37.1349C13.5803 36.8769 13.5294 36.6496 13.4276 36.4531C13.3281 36.2566 13.1731 36.1039 12.9624 35.995C12.754 35.8838 12.4853 35.8281 12.1562 35.8281H10.9489V42H9.63139ZM16.0101 42V36.5455H17.2566V37.4545H17.3134C17.4128 37.1397 17.5833 36.897 17.8248 36.7266C18.0686 36.5537 18.3468 36.4673 18.6593 36.4673C18.7303 36.4673 18.8096 36.4709 18.8972 36.478C18.9872 36.4827 19.0617 36.491 19.1209 36.5028V37.6854C19.0665 37.6664 18.9801 37.6499 18.8617 37.6357C18.7457 37.6191 18.6332 37.6108 18.5243 37.6108C18.29 37.6108 18.0792 37.6617 17.8922 37.7635C17.7076 37.8629 17.562 38.0014 17.4554 38.179C17.3489 38.3565 17.2956 38.5613 17.2956 38.7933V42H16.0101ZM22.1296 42.1065C21.5969 42.1065 21.1353 41.9893 20.7447 41.755C20.354 41.5206 20.051 41.1927 19.8356 40.7713C19.6225 40.3499 19.516 39.8575 19.516 39.294C19.516 38.7306 19.6225 38.237 19.8356 37.8132C20.051 37.3894 20.354 37.0604 20.7447 36.826C21.1353 36.5916 21.5969 36.4744 22.1296 36.4744C22.6623 36.4744 23.1239 36.5916 23.5146 36.826C23.9052 37.0604 24.207 37.3894 24.4201 37.8132C24.6355 38.237 24.7433 38.7306 24.7433 39.294C24.7433 39.8575 24.6355 40.3499 24.4201 40.7713C24.207 41.1927 23.9052 41.5206 23.5146 41.755C23.1239 41.9893 22.6623 42.1065 22.1296 42.1065ZM22.1367 41.0767C22.4255 41.0767 22.667 40.9974 22.8612 40.8388C23.0553 40.6778 23.1997 40.4624 23.2944 40.1925C23.3915 39.9226 23.44 39.6219 23.44 39.2905C23.44 38.9567 23.3915 38.6548 23.2944 38.3849C23.1997 38.1127 23.0553 37.8961 22.8612 37.7351C22.667 37.5741 22.4255 37.4936 22.1367 37.4936C21.8408 37.4936 21.5946 37.5741 21.3981 37.7351C21.204 37.8961 21.0584 38.1127 20.9613 38.3849C20.8666 38.6548 20.8192 38.9567 20.8192 39.2905C20.8192 39.6219 20.8666 39.9226 20.9613 40.1925C21.0584 40.4624 21.204 40.6778 21.3981 40.8388C21.5946 40.9974 21.8408 41.0767 22.1367 41.0767ZM28.5971 36.5455V37.5398H25.3727V36.5455H28.5971ZM26.1788 42V36.0305C26.1788 35.6636 26.2546 35.3582 26.4061 35.1143C26.56 34.8705 26.7659 34.6882 27.024 34.5675C27.282 34.4467 27.5685 34.3864 27.8833 34.3864C28.1059 34.3864 28.3036 34.4041 28.4764 34.4396C28.6492 34.4751 28.777 34.5071 28.8599 34.5355L28.6042 35.5298C28.5498 35.5133 28.4811 35.4967 28.3983 35.4801C28.3154 35.4612 28.2231 35.4517 28.1213 35.4517C27.8822 35.4517 27.7129 35.5097 27.6135 35.6257C27.5164 35.7393 27.4679 35.9027 27.4679 36.1158V42H26.1788ZM29.6039 42V36.5455H30.8894V42H29.6039ZM30.2502 35.7713C30.0466 35.7713 29.8714 35.7038 29.7246 35.5689C29.5778 35.4316 29.5044 35.267 29.5044 35.0753C29.5044 34.8812 29.5778 34.7166 29.7246 34.5817C29.8714 34.4444 30.0466 34.3757 30.2502 34.3757C30.4561 34.3757 30.6313 34.4444 30.7757 34.5817C30.9225 34.7166 30.9959 34.8812 30.9959 35.0753C30.9959 35.267 30.9225 35.4316 30.7757 35.5689C30.6313 35.7038 30.4561 35.7713 30.2502 35.7713ZM33.4968 34.7273V42H32.2113V34.7273H33.4968ZM37.2335 42.1065C36.6866 42.1065 36.2143 41.9929 35.8166 41.7656C35.4212 41.536 35.117 41.2116 34.9039 40.7926C34.6909 40.3712 34.5843 39.8752 34.5843 39.3047C34.5843 38.7436 34.6909 38.2512 34.9039 37.8274C35.1194 37.4013 35.42 37.0698 35.8059 36.8331C36.1918 36.594 36.6452 36.4744 37.166 36.4744C37.5022 36.4744 37.8194 36.5289 38.1177 36.6378C38.4184 36.7443 38.6835 36.91 38.9132 37.1349C39.1452 37.3598 39.3275 37.6463 39.46 37.9943C39.5926 38.34 39.6589 38.7519 39.6589 39.2301V39.6243H35.188V38.7578H38.4267C38.4243 38.5116 38.371 38.2926 38.2669 38.1009C38.1627 37.9067 38.0171 37.754 37.8301 37.6428C37.6454 37.5315 37.43 37.4759 37.1838 37.4759C36.921 37.4759 36.6902 37.5398 36.4913 37.6676C36.2924 37.7931 36.1374 37.9588 36.0261 38.1648C35.9172 38.3684 35.8616 38.5921 35.8592 38.8359V39.5923C35.8592 39.9096 35.9172 40.1818 36.0332 40.4091C36.1492 40.634 36.3114 40.8068 36.5197 40.9276C36.728 41.0459 36.9719 41.1051 37.2512 41.1051C37.4383 41.1051 37.6075 41.0791 37.7591 41.027C37.9106 40.9725 38.042 40.8932 38.1532 40.7891C38.2645 40.6849 38.3485 40.5559 38.4054 40.402L39.6056 40.5369C39.5299 40.8542 39.3855 41.1312 39.1724 41.3679C38.9617 41.6023 38.6918 41.7846 38.3627 41.9148C38.0337 42.0426 37.6573 42.1065 37.2335 42.1065Z" fill="#222831"/>
</svg>
