<svg width="49" height="44" viewBox="0 0 49 44" fill="none" xmlns="http://www.w3.org/2000/svg">
<path d="M28.9404 3.60001C31.7317 3.60024 33.9999 5.87387 34 8.68985C34 9.6835 33.8616 10.6104 33.6162 11.4779L33.5039 11.8461L33.5029 11.849C32.7487 14.2357 31.2033 16.1595 29.5352 17.5932C28.0737 18.8492 26.5403 19.7106 25.415 20.1664L24.959 20.3363L24.9531 20.3383C24.8532 20.3735 24.689 20.3998 24.5 20.3998C24.358 20.3998 24.2301 20.385 24.1328 20.3627L24.0469 20.3383L24.041 20.3363L23.585 20.1664C22.4597 19.7106 20.9263 18.8492 19.4648 17.5932C17.901 16.2491 16.4448 14.4746 15.6475 12.2914L15.4971 11.849L15.4961 11.8461L15.3838 11.4779C15.1384 10.6104 15 9.6835 15 8.68985C15.0001 5.87387 17.2683 3.60024 20.0596 3.60001C21.7046 3.60001 23.1795 4.3996 24.0996 5.6293L24.5 6.16446L24.9004 5.6293C25.8205 4.3996 27.2954 3.60001 28.9404 3.60001Z" fill="#222831" stroke="#222831"/>
<path d="M7.34846 42L5.2959 34.7273H6.7128L8.02317 40.0717H8.09064L9.48979 34.7273H10.7789L12.1816 40.0753H12.2455L13.5558 34.7273H14.9727L12.9202 42H11.6205L10.1645 36.897H10.1077L8.64817 42H7.34846ZM15.8295 42V36.5455H17.115V42H15.8295ZM16.4758 35.7713C16.2722 35.7713 16.097 35.7038 15.9502 35.5689C15.8034 35.4316 15.73 35.267 15.73 35.0753C15.73 34.8812 15.8034 34.7166 15.9502 34.5817C16.097 34.4444 16.2722 34.3757 16.4758 34.3757C16.6817 34.3757 16.8569 34.4444 17.0013 34.5817C17.1481 34.7166 17.2215 34.8812 17.2215 35.0753C17.2215 35.267 17.1481 35.4316 17.0013 35.5689C16.8569 35.7038 16.6817 35.7713 16.4758 35.7713ZM22.748 37.9872L21.5761 38.1151C21.5429 37.9967 21.4849 37.8854 21.4021 37.7812C21.3216 37.6771 21.2127 37.593 21.0754 37.5291C20.9381 37.4652 20.77 37.4332 20.5711 37.4332C20.3036 37.4332 20.0787 37.4912 19.8964 37.6072C19.7165 37.7232 19.6277 37.8736 19.6301 38.0582C19.6277 38.2169 19.6857 38.3459 19.8041 38.4453C19.9248 38.5447 20.1237 38.6264 20.4007 38.6903L21.3311 38.8892C21.8472 39.0005 22.2307 39.1768 22.4816 39.4183C22.7349 39.6598 22.8628 39.9759 22.8651 40.3665C22.8628 40.7098 22.7622 41.0128 22.5633 41.2756C22.3668 41.536 22.0934 41.7396 21.743 41.8864C21.3926 42.0331 20.9901 42.1065 20.5356 42.1065C19.868 42.1065 19.3306 41.9669 18.9234 41.6875C18.5162 41.4058 18.2735 41.014 18.1954 40.5121L19.449 40.3913C19.5058 40.6375 19.6265 40.8234 19.8112 40.9489C19.9958 41.0743 20.2361 41.1371 20.532 41.1371C20.8374 41.1371 21.0825 41.0743 21.2671 40.9489C21.4542 40.8234 21.5477 40.6683 21.5477 40.4837C21.5477 40.3274 21.4873 40.1984 21.3666 40.0966C21.2482 39.9948 21.0635 39.9167 20.8126 39.8622L19.8822 39.6669C19.359 39.558 18.9719 39.3745 18.721 39.1165C18.47 38.8561 18.3457 38.527 18.3481 38.1293C18.3457 37.7931 18.4369 37.5019 18.6215 37.2557C18.8086 37.0071 19.0678 36.8153 19.3992 36.6804C19.733 36.5431 20.1177 36.4744 20.5534 36.4744C21.1926 36.4744 21.6956 36.6106 22.0626 36.8828C22.4319 37.1551 22.6604 37.5232 22.748 37.9872ZM25.2107 38.804V42H23.9252V34.7273H25.1823V37.4723H25.2462C25.374 37.1645 25.5717 36.9219 25.8392 36.7443C26.1091 36.5644 26.4524 36.4744 26.8691 36.4744C27.2478 36.4744 27.5781 36.5537 27.8598 36.7124C28.1415 36.871 28.3593 37.103 28.5132 37.4084C28.6695 37.7138 28.7476 38.0866 28.7476 38.527V42H27.4621V38.7259C27.4621 38.3589 27.3674 38.0736 27.178 37.87C26.991 37.6641 26.7282 37.5611 26.3896 37.5611C26.1624 37.5611 25.9588 37.6108 25.7789 37.7102C25.6013 37.8073 25.4616 37.9482 25.3598 38.1328C25.2604 38.3175 25.2107 38.5412 25.2107 38.804ZM31.3435 34.7273V42H30.058V34.7273H31.3435ZM32.6654 42V36.5455H33.9509V42H32.6654ZM33.3117 35.7713C33.1081 35.7713 32.9329 35.7038 32.7861 35.5689C32.6394 35.4316 32.566 35.267 32.566 35.0753C32.566 34.8812 32.6394 34.7166 32.7861 34.5817C32.9329 34.4444 33.1081 34.3757 33.3117 34.3757C33.5177 34.3757 33.6929 34.4444 33.8373 34.5817C33.984 34.7166 34.0574 34.8812 34.0574 35.0753C34.0574 35.267 33.984 35.4316 33.8373 35.5689C33.6929 35.7038 33.5177 35.7713 33.3117 35.7713ZM39.5839 37.9872L38.412 38.1151C38.3789 37.9967 38.3209 37.8854 38.238 37.7812C38.1575 37.6771 38.0486 37.593 37.9113 37.5291C37.774 37.4652 37.6059 37.4332 37.407 37.4332C37.1395 37.4332 36.9146 37.4912 36.7323 37.6072C36.5524 37.7232 36.4636 37.8736 36.466 38.0582C36.4636 38.2169 36.5216 38.3459 36.64 38.4453C36.7607 38.5447 36.9596 38.6264 37.2366 38.6903L38.167 38.8892C38.6831 39.0005 39.0666 39.1768 39.3176 39.4183C39.5709 39.6598 39.6987 39.9759 39.7011 40.3665C39.6987 40.7098 39.5981 41.0128 39.3992 41.2756C39.2027 41.536 38.9293 41.7396 38.5789 41.8864C38.2285 42.0331 37.8261 42.1065 37.3715 42.1065C36.7039 42.1065 36.1665 41.9669 35.7593 41.6875C35.3521 41.4058 35.1095 41.014 35.0313 40.5121L36.2849 40.3913C36.3417 40.6375 36.4624 40.8234 36.6471 40.9489C36.8318 41.0743 37.0721 41.1371 37.368 41.1371C37.6734 41.1371 37.9184 41.0743 38.1031 40.9489C38.2901 40.8234 38.3836 40.6683 38.3836 40.4837C38.3836 40.3274 38.3232 40.1984 38.2025 40.0966C38.0841 39.9948 37.8995 39.9167 37.6485 39.8622L36.7181 39.6669C36.1949 39.558 35.8079 39.3745 35.5569 39.1165C35.306 38.8561 35.1817 38.527 35.184 38.1293C35.1817 37.7931 35.2728 37.5019 35.4575 37.2557C35.6445 37.0071 35.9037 36.8153 36.2352 36.6804C36.569 36.5431 36.9537 36.4744 37.3893 36.4744C38.0285 36.4744 38.5316 36.6106 38.8985 36.8828C39.2678 37.1551 39.4963 37.5232 39.5839 37.9872ZM43.4848 36.5455V37.5398H40.3492V36.5455H43.4848ZM41.1233 35.2386H42.4088V40.3594C42.4088 40.5322 42.4349 40.6648 42.4869 40.7571C42.5414 40.8471 42.6124 40.9086 42.7 40.9418C42.7876 40.9749 42.8847 40.9915 42.9912 40.9915C43.0717 40.9915 43.1451 40.9856 43.2114 40.9737C43.28 40.9619 43.3321 40.9512 43.3676 40.9418L43.5843 41.9467C43.5156 41.9704 43.4173 41.9964 43.2895 42.0249C43.164 42.0533 43.0102 42.0698 42.8279 42.0746C42.5059 42.084 42.2159 42.0355 41.9578 41.929C41.6998 41.8201 41.495 41.652 41.3435 41.4247C41.1943 41.1974 41.1209 40.9134 41.1233 40.5724V35.2386Z" fill="#222831"/>
</svg>
