<svg width="49" height="44" viewBox="0 0 49 44" fill="none" xmlns="http://www.w3.org/2000/svg">
<g opacity="0.5">
<path d="M14.5 2H16.24C17.32 2 18.17 2.93 18.08 4L17.25 13.96C17.11 15.59 18.4 16.99 20.04 16.99H30.69C32.13 16.99 33.39 15.81 33.5 14.38L34.04 6.88C34.16 5.22 32.9 3.87 31.23 3.87H18.32" stroke="#262323" stroke-miterlimit="10" stroke-linecap="round" stroke-linejoin="round"/>
<path d="M28.75 22C29.4404 22 30 21.4404 30 20.75C30 20.0596 29.4404 19.5 28.75 19.5C28.0596 19.5 27.5 20.0596 27.5 20.75C27.5 21.4404 28.0596 22 28.75 22Z" stroke="#262323" stroke-miterlimit="10" stroke-linecap="round" stroke-linejoin="round"/>
<path d="M20.75 22C21.4404 22 22 21.4404 22 20.75C22 20.0596 21.4404 19.5 20.75 19.5C20.0596 19.5 19.5 20.0596 19.5 20.75C19.5 21.4404 20.0596 22 20.75 22Z" stroke="#262323" stroke-miterlimit="10" stroke-linecap="round" stroke-linejoin="round"/>
<path d="M21.5 8H33.5" stroke="#262323" stroke-miterlimit="10" stroke-linecap="round" stroke-linejoin="round"/>
<path d="M20.9302 37H20.0495C19.9975 36.7467 19.9063 36.5241 19.7761 36.3324C19.6483 36.1406 19.492 35.9796 19.3074 35.8494C19.1251 35.7169 18.9226 35.6174 18.7001 35.5511C18.4776 35.4848 18.2456 35.4517 18.0041 35.4517C17.5637 35.4517 17.1648 35.563 16.8074 35.7855C16.4522 36.008 16.1693 36.3359 15.9586 36.7692C15.7503 37.2024 15.6461 37.7339 15.6461 38.3636C15.6461 38.9934 15.7503 39.5249 15.9586 39.9581C16.1693 40.3913 16.4522 40.7192 16.8074 40.9418C17.1648 41.1643 17.5637 41.2756 18.0041 41.2756C18.2456 41.2756 18.4776 41.2424 18.7001 41.1761C18.9226 41.1098 19.1251 41.0116 19.3074 40.8814C19.492 40.7488 19.6483 40.5866 19.7761 40.3949C19.9063 40.2008 19.9975 39.9782 20.0495 39.7273H20.9302C20.8639 40.099 20.7432 40.4316 20.568 40.7251C20.3928 41.0187 20.175 41.2685 19.9146 41.4744C19.6542 41.678 19.3618 41.8331 19.0375 41.9396C18.7155 42.0462 18.371 42.0994 18.0041 42.0994C17.3838 42.0994 16.8322 41.9479 16.3493 41.6449C15.8663 41.3419 15.4863 40.911 15.2093 40.3523C14.9324 39.7936 14.7939 39.1307 14.7939 38.3636C14.7939 37.5966 14.9324 36.9337 15.2093 36.375C15.4863 35.8163 15.8663 35.3854 16.3493 35.0824C16.8322 34.7794 17.3838 34.6278 18.0041 34.6278C18.371 34.6278 18.7155 34.6811 19.0375 34.7876C19.3618 34.8942 19.6542 35.0504 19.9146 35.2564C20.175 35.46 20.3928 35.7086 20.568 36.0021C20.7432 36.2933 20.8639 36.6259 20.9302 37ZM23.8448 42.1278C23.4992 42.1278 23.1855 42.0627 22.9038 41.9325C22.622 41.8 22.3983 41.6094 22.2326 41.3608C22.0669 41.1098 21.984 40.8068 21.984 40.4517C21.984 40.1392 22.0456 39.8859 22.1687 39.6918C22.2918 39.4953 22.4563 39.3414 22.6623 39.2301C22.8683 39.1188 23.0955 39.036 23.3441 38.9815C23.5951 38.9247 23.8472 38.8797 24.1005 38.8466C24.4319 38.804 24.7006 38.772 24.9066 38.7507C25.1149 38.727 25.2665 38.688 25.3612 38.6335C25.4582 38.5791 25.5067 38.4844 25.5067 38.3494V38.321C25.5067 37.9706 25.4109 37.6984 25.2191 37.5043C25.0297 37.3101 24.7421 37.2131 24.3562 37.2131C23.9561 37.2131 23.6424 37.3007 23.4151 37.4759C23.1879 37.651 23.0281 37.8381 22.9357 38.0369L22.1403 37.7528C22.2823 37.4214 22.4717 37.1634 22.7085 36.9787C22.9476 36.7917 23.208 36.6615 23.4897 36.5881C23.7738 36.5123 24.0531 36.4744 24.3278 36.4744C24.503 36.4744 24.7042 36.4957 24.9315 36.5384C25.1611 36.5786 25.3825 36.6626 25.5955 36.7905C25.811 36.9183 25.9897 37.1113 26.1317 37.3693C26.2738 37.6274 26.3448 37.973 26.3448 38.4062V42H25.5067V41.2614H25.4641C25.4073 41.3797 25.3126 41.5064 25.18 41.6413C25.0475 41.7763 24.8711 41.8911 24.6509 41.9858C24.4308 42.0805 24.1621 42.1278 23.8448 42.1278ZM23.9727 41.375C24.3041 41.375 24.5835 41.3099 24.8107 41.1797C25.0404 41.0495 25.2132 40.8814 25.3292 40.6754C25.4476 40.4695 25.5067 40.2528 25.5067 40.0256V39.2585C25.4712 39.3011 25.3931 39.3402 25.2724 39.3757C25.154 39.4089 25.0167 39.4384 24.8604 39.4645C24.7066 39.4882 24.5562 39.5095 24.4094 39.5284C24.265 39.545 24.1478 39.5592 24.0579 39.571C23.8401 39.5994 23.6365 39.6456 23.4471 39.7095C23.2601 39.7711 23.1085 39.8646 22.9925 39.9901C22.8789 40.1132 22.8221 40.2812 22.8221 40.4943C22.8221 40.7855 22.9298 41.0057 23.1452 41.1548C23.363 41.3016 23.6388 41.375 23.9727 41.375ZM27.8745 42V36.5455H28.6841V37.3693H28.7409C28.8404 37.0994 29.0203 36.8804 29.2807 36.7124C29.5411 36.5443 29.8347 36.4602 30.1614 36.4602C30.223 36.4602 30.2999 36.4614 30.3922 36.4638C30.4846 36.4661 30.5544 36.4697 30.6017 36.4744V37.3267C30.5733 37.3196 30.5082 37.3089 30.4064 37.2947C30.307 37.2782 30.2016 37.2699 30.0904 37.2699C29.8252 37.2699 29.5885 37.3255 29.3801 37.4368C29.1742 37.5457 29.0108 37.6972 28.8901 37.8913C28.7717 38.0831 28.7125 38.3021 28.7125 38.5483V42H27.8745ZM34.3091 36.5455V37.2557H31.4824V36.5455H34.3091ZM32.3063 35.2386H33.1444V40.4375C33.1444 40.6742 33.1787 40.8518 33.2473 40.9702C33.3184 41.0862 33.4083 41.1643 33.5172 41.2045C33.6285 41.2424 33.7457 41.2614 33.8688 41.2614C33.9611 41.2614 34.0369 41.2566 34.0961 41.2472C34.1552 41.2353 34.2026 41.2259 34.2381 41.2188L34.4086 41.9716C34.3517 41.9929 34.2724 42.0142 34.1706 42.0355C34.0688 42.0592 33.9398 42.071 33.7836 42.071C33.5468 42.071 33.3148 42.0201 33.0875 41.9183C32.8626 41.8165 32.6756 41.6615 32.5265 41.4531C32.3797 41.2448 32.3063 40.982 32.3063 40.6648V35.2386Z" fill="#262323"/>
</g>
</svg>
