<svg width="49" height="44" viewBox="0 0 49 44" fill="none" xmlns="http://www.w3.org/2000/svg">
<g opacity="0.5">
<path d="M24.5 18V15V18Z" fill="#262323"/>
<path d="M24.5 18V15" stroke="#262323" stroke-linecap="round" stroke-linejoin="round"/>
<path d="M22.57 2.81997L15.64 8.36997C14.86 8.98997 14.36 10.3 14.53 11.28L15.86 19.24C16.1 20.66 17.46 21.81 18.9 21.81H30.1C31.53 21.81 32.9 20.65 33.14 19.24L34.47 11.28C34.63 10.3 34.13 8.98997 33.36 8.36997L26.43 2.82997C25.36 1.96997 23.63 1.96997 22.57 2.81997Z" stroke="#262323" stroke-linecap="round" stroke-linejoin="round"/>
<path d="M11.4403 42V34.7273H12.3209V37.9659H16.1988V34.7273H17.0795V42H16.1988V38.7472H12.3209V42H11.4403ZM20.9449 42.1136C20.4524 42.1136 20.0204 41.9964 19.6487 41.7621C19.2794 41.5277 18.9906 41.1998 18.7822 40.7784C18.5763 40.357 18.4733 39.8646 18.4733 39.3011C18.4733 38.733 18.5763 38.237 18.7822 37.8132C18.9906 37.3894 19.2794 37.0604 19.6487 36.826C20.0204 36.5916 20.4524 36.4744 20.9449 36.4744C21.4373 36.4744 21.8682 36.5916 22.2375 36.826C22.6092 37.0604 22.898 37.3894 23.104 37.8132C23.3123 38.237 23.4165 38.733 23.4165 39.3011C23.4165 39.8646 23.3123 40.357 23.104 40.7784C22.898 41.1998 22.6092 41.5277 22.2375 41.7621C21.8682 41.9964 21.4373 42.1136 20.9449 42.1136ZM20.9449 41.3608C21.3189 41.3608 21.6267 41.2649 21.8682 41.0732C22.1096 40.8814 22.2884 40.6293 22.4044 40.3168C22.5204 40.0043 22.5784 39.6657 22.5784 39.3011C22.5784 38.9366 22.5204 38.5968 22.4044 38.282C22.2884 37.9671 22.1096 37.7126 21.8682 37.5185C21.6267 37.3243 21.3189 37.2273 20.9449 37.2273C20.5708 37.2273 20.2631 37.3243 20.0216 37.5185C19.7801 37.7126 19.6014 37.9671 19.4854 38.282C19.3693 38.5968 19.3113 38.9366 19.3113 39.3011C19.3113 39.6657 19.3693 40.0043 19.4854 40.3168C19.6014 40.6293 19.7801 40.8814 20.0216 41.0732C20.2631 41.2649 20.5708 41.3608 20.9449 41.3608ZM24.6958 42V36.5455H25.5054V37.3977H25.5764C25.6901 37.1065 25.8735 36.8804 26.1269 36.7195C26.3802 36.5561 26.6844 36.4744 27.0395 36.4744C27.3994 36.4744 27.6988 36.5561 27.9379 36.7195C28.1794 36.8804 28.3676 37.1065 28.5026 37.3977H28.5594C28.6991 37.116 28.9086 36.8923 29.1879 36.7266C29.4673 36.5585 29.8023 36.4744 30.1929 36.4744C30.6806 36.4744 31.0795 36.6271 31.3896 36.9325C31.6998 37.2356 31.8548 37.7079 31.8548 38.3494V42H31.0168V38.3494C31.0168 37.947 30.9067 37.6593 30.6865 37.4865C30.4664 37.3137 30.2071 37.2273 29.9088 37.2273C29.5253 37.2273 29.2282 37.3433 29.0175 37.5753C28.8068 37.8049 28.7014 38.0961 28.7014 38.4489V42H27.8492V38.2642C27.8492 37.9541 27.7486 37.7043 27.5473 37.5149C27.3461 37.3232 27.0869 37.2273 26.7696 37.2273C26.5518 37.2273 26.3482 37.2853 26.1588 37.4013C25.9718 37.5173 25.8203 37.6783 25.7043 37.8842C25.5906 38.0878 25.5338 38.3234 25.5338 38.5909V42H24.6958ZM35.6741 42.1136C35.1485 42.1136 34.6952 41.9976 34.314 41.7656C33.9352 41.5312 33.6428 41.2045 33.4369 40.7855C33.2333 40.3641 33.1315 39.8741 33.1315 39.3153C33.1315 38.7566 33.2333 38.2642 33.4369 37.8381C33.6428 37.4096 33.9293 37.0758 34.2963 36.8366C34.6656 36.5952 35.0964 36.4744 35.5889 36.4744C35.873 36.4744 36.1535 36.5218 36.4305 36.6165C36.7075 36.7112 36.9596 36.8651 37.1869 37.0781C37.4142 37.2888 37.5953 37.5682 37.7302 37.9162C37.8651 38.2642 37.9326 38.6927 37.9326 39.2017V39.5568H33.7281V38.8324H37.0803C37.0803 38.5246 37.0188 38.25 36.8957 38.0085C36.7749 37.767 36.6021 37.5765 36.3772 37.4368C36.1547 37.2971 35.8919 37.2273 35.5889 37.2273C35.2551 37.2273 34.9662 37.3101 34.7224 37.4759C34.4809 37.6392 34.2951 37.8523 34.1649 38.1151C34.0347 38.3778 33.9695 38.6596 33.9695 38.9602V39.4432C33.9695 39.8551 34.0406 40.2043 34.1826 40.4908C34.327 40.7749 34.5271 40.9915 34.7828 41.1406C35.0384 41.2874 35.3356 41.3608 35.6741 41.3608C35.8943 41.3608 36.0931 41.33 36.2707 41.2685C36.4506 41.2045 36.6057 41.1098 36.7359 40.9844C36.8661 40.8565 36.9667 40.6979 37.0377 40.5085L37.8474 40.7358C37.7622 41.0104 37.6189 41.2519 37.4177 41.4602C37.2165 41.6662 36.9679 41.8272 36.672 41.9432C36.376 42.0568 36.0434 42.1136 35.6741 42.1136Z" fill="#262323"/>
</g>
</svg>
