<svg width="49" height="44" viewBox="0 0 49 44" fill="none" xmlns="http://www.w3.org/2000/svg">
<g opacity="0.5">
<path d="M20 7.67001V6.70001C20 4.45001 21.81 2.24001 24.06 2.03001C26.74 1.77001 29 3.88001 29 6.51001V7.89001" stroke="#262323" stroke-miterlimit="10" stroke-linecap="round" stroke-linejoin="round"/>
<path d="M21.4999 22H27.4999C31.5199 22 32.2399 20.39 32.4499 18.43L33.1999 12.43C33.4699 9.99 32.7699 8 28.4999 8H20.4999C16.2299 8 15.5299 9.99 15.7999 12.43L16.5499 18.43C16.7599 20.39 17.4799 22 21.4999 22Z" stroke="#262323" stroke-miterlimit="10" stroke-linecap="round" stroke-linejoin="round"/>
<path d="M27.9955 12H28.0045" stroke="#262323" stroke-linecap="round" stroke-linejoin="round"/>
<path d="M20.9945 12H21.0035" stroke="#262323" stroke-linecap="round" stroke-linejoin="round"/>
<path d="M4.26252 42V34.7273H6.7199C7.29045 34.7273 7.75684 34.8303 8.11905 35.0362C8.48364 35.2398 8.75352 35.5156 8.92871 35.8636C9.1039 36.2116 9.1915 36.5999 9.1915 37.0284C9.1915 37.4569 9.1039 37.8464 8.92871 38.1967C8.75589 38.5471 8.48837 38.8265 8.12615 39.0348C7.76394 39.2408 7.29992 39.3438 6.73411 39.3438H4.97275V38.5625H6.7057C7.09632 38.5625 7.41001 38.495 7.64675 38.3601C7.88349 38.2251 8.05513 38.0429 8.16167 37.8132C8.27057 37.5812 8.32502 37.3196 8.32502 37.0284C8.32502 36.7372 8.27057 36.4768 8.16167 36.2472C8.05513 36.0175 7.88231 35.8376 7.6432 35.7074C7.40409 35.5748 7.08685 35.5085 6.6915 35.5085H5.1432V42H4.26252ZM10.4965 42V36.5455H11.3062V37.3693H11.363C11.4624 37.0994 11.6424 36.8804 11.9028 36.7124C12.1632 36.5443 12.4568 36.4602 12.7835 36.4602C12.845 36.4602 12.922 36.4614 13.0143 36.4638C13.1066 36.4661 13.1765 36.4697 13.2238 36.4744V37.3267C13.1954 37.3196 13.1303 37.3089 13.0285 37.2947C12.9291 37.2782 12.8237 37.2699 12.7124 37.2699C12.4473 37.2699 12.2106 37.3255 12.0022 37.4368C11.7963 37.5457 11.6329 37.6972 11.5122 37.8913C11.3938 38.0831 11.3346 38.3021 11.3346 38.5483V42H10.4965ZM16.2671 42.1136C15.7747 42.1136 15.3427 41.9964 14.971 41.7621C14.6017 41.5277 14.3128 41.1998 14.1045 40.7784C13.8985 40.357 13.7955 39.8646 13.7955 39.3011C13.7955 38.733 13.8985 38.237 14.1045 37.8132C14.3128 37.3894 14.6017 37.0604 14.971 36.826C15.3427 36.5916 15.7747 36.4744 16.2671 36.4744C16.7596 36.4744 17.1904 36.5916 17.5597 36.826C17.9314 37.0604 18.2203 37.3894 18.4262 37.8132C18.6346 38.237 18.7387 38.733 18.7387 39.3011C18.7387 39.8646 18.6346 40.357 18.4262 40.7784C18.2203 41.1998 17.9314 41.5277 17.5597 41.7621C17.1904 41.9964 16.7596 42.1136 16.2671 42.1136ZM16.2671 41.3608C16.6412 41.3608 16.949 41.2649 17.1904 41.0732C17.4319 40.8814 17.6106 40.6293 17.7267 40.3168C17.8427 40.0043 17.9007 39.6657 17.9007 39.3011C17.9007 38.9366 17.8427 38.5968 17.7267 38.282C17.6106 37.9671 17.4319 37.7126 17.1904 37.5185C16.949 37.3243 16.6412 37.2273 16.2671 37.2273C15.8931 37.2273 15.5853 37.3243 15.3438 37.5185C15.1024 37.7126 14.9236 37.9671 14.8076 38.282C14.6916 38.5968 14.6336 38.9366 14.6336 39.3011C14.6336 39.6657 14.6916 40.0043 14.8076 40.3168C14.9236 40.6293 15.1024 40.8814 15.3438 41.0732C15.5853 41.2649 15.8931 41.3608 16.2671 41.3608ZM22.0777 42.1136C21.6231 42.1136 21.2219 41.9988 20.8738 41.7692C20.5258 41.5372 20.2536 41.2105 20.0571 40.7891C19.8606 40.3653 19.7623 39.8646 19.7623 39.2869C19.7623 38.714 19.8606 38.2169 20.0571 37.7955C20.2536 37.3741 20.527 37.0485 20.8774 36.8189C21.2278 36.5893 21.6326 36.4744 22.0919 36.4744C22.447 36.4744 22.7275 36.5336 22.9335 36.652C23.1418 36.768 23.3005 36.9006 23.4094 37.0497C23.5206 37.1965 23.607 37.3172 23.6686 37.4119H23.7396V34.7273H24.5777V42H23.768V41.1619H23.6686C23.607 41.2614 23.5194 41.3868 23.4058 41.5384C23.2922 41.6875 23.13 41.8213 22.9193 41.9396C22.7086 42.0556 22.4281 42.1136 22.0777 42.1136ZM22.1913 41.3608C22.5275 41.3608 22.8116 41.2732 23.0436 41.098C23.2756 40.9205 23.452 40.6754 23.5727 40.3629C23.6934 40.0481 23.7538 39.6847 23.7538 39.2727C23.7538 38.8655 23.6946 38.5092 23.5763 38.2038C23.4579 37.8961 23.2827 37.657 23.0507 37.4865C22.8187 37.3137 22.5322 37.2273 22.1913 37.2273C21.8362 37.2273 21.5403 37.3184 21.3035 37.5007C21.0692 37.6806 20.8928 37.9257 20.7744 38.2358C20.6584 38.5436 20.6004 38.8892 20.6004 39.2727C20.6004 39.661 20.6596 40.0137 20.778 40.331C20.8987 40.6458 21.0763 40.8968 21.3106 41.0838C21.5474 41.2685 21.8409 41.3608 22.1913 41.3608ZM29.6665 39.7699V36.5455H30.5045V42H29.6665V41.0767H29.6096C29.4818 41.3537 29.2829 41.5893 29.0131 41.7834C28.7432 41.9751 28.4023 42.071 27.9903 42.071C27.6494 42.071 27.3464 41.9964 27.0812 41.8473C26.8161 41.6958 26.6077 41.4685 26.4562 41.1655C26.3047 40.8601 26.229 40.4754 26.229 40.0114V36.5455H27.067V39.9545C27.067 40.3523 27.1783 40.6695 27.4008 40.9062C27.6257 41.143 27.9122 41.2614 28.2602 41.2614C28.4685 41.2614 28.6804 41.2081 28.8959 41.1016C29.1137 40.995 29.296 40.8317 29.4427 40.6115C29.5919 40.3913 29.6665 40.1108 29.6665 39.7699ZM34.2554 42.1136C33.7441 42.1136 33.3037 41.9929 32.9344 41.7514C32.5651 41.5099 32.281 41.1773 32.0821 40.7536C31.8833 40.3298 31.7838 39.8456 31.7838 39.3011C31.7838 38.7472 31.8856 38.2583 32.0892 37.8345C32.2952 37.4084 32.5816 37.0758 32.9486 36.8366C33.3179 36.5952 33.7488 36.4744 34.2412 36.4744C34.6247 36.4744 34.9704 36.5455 35.2781 36.6875C35.5859 36.8295 35.838 37.0284 36.0345 37.2841C36.231 37.5398 36.353 37.8381 36.4003 38.179H35.5622C35.4983 37.9304 35.3563 37.7102 35.1361 37.5185C34.9183 37.3243 34.6247 37.2273 34.2554 37.2273C33.9287 37.2273 33.6423 37.3125 33.396 37.483C33.1522 37.651 32.9616 37.889 32.8243 38.1967C32.6894 38.5021 32.6219 38.8608 32.6219 39.2727C32.6219 39.6941 32.6882 40.0611 32.8208 40.3736C32.9557 40.6861 33.1451 40.9287 33.3889 41.1016C33.6352 41.2744 33.924 41.3608 34.2554 41.3608C34.4732 41.3608 34.6709 41.3229 34.8485 41.2472C35.026 41.1714 35.1763 41.0625 35.2994 40.9205C35.4226 40.7784 35.5102 40.608 35.5622 40.4091H36.4003C36.353 40.7311 36.2358 41.0211 36.0487 41.2791C35.8641 41.5348 35.6191 41.7384 35.3137 41.8899C35.0106 42.0391 34.6579 42.1136 34.2554 42.1136ZM39.9976 36.5455V37.2557H37.1709V36.5455H39.9976ZM37.9948 35.2386H38.8328V40.4375C38.8328 40.6742 38.8672 40.8518 38.9358 40.9702C39.0068 41.0862 39.0968 41.1643 39.2057 41.2045C39.317 41.2424 39.4342 41.2614 39.5573 41.2614C39.6496 41.2614 39.7253 41.2566 39.7845 41.2472C39.8437 41.2353 39.8911 41.2259 39.9266 41.2188L40.097 41.9716C40.0402 41.9929 39.9609 42.0142 39.8591 42.0355C39.7573 42.0592 39.6283 42.071 39.472 42.071C39.2353 42.071 39.0033 42.0201 38.776 41.9183C38.5511 41.8165 38.3641 41.6615 38.2149 41.4531C38.0682 41.2448 37.9948 40.982 37.9948 40.6648V35.2386ZM45.0242 37.767L44.2714 37.9801C44.224 37.8546 44.1542 37.7327 44.0619 37.6143C43.9719 37.4936 43.8488 37.3942 43.6926 37.3161C43.5363 37.2379 43.3363 37.1989 43.0924 37.1989C42.7586 37.1989 42.4804 37.2758 42.2579 37.4297C42.0377 37.5812 41.9276 37.7741 41.9276 38.0085C41.9276 38.2169 42.0034 38.3814 42.1549 38.5021C42.3064 38.6229 42.5432 38.7235 42.8651 38.804L43.6748 39.0028C44.1625 39.1212 44.5259 39.3023 44.765 39.5462C45.0041 39.7876 45.1237 40.099 45.1237 40.4801C45.1237 40.7926 45.0337 41.072 44.8538 41.3182C44.6762 41.5644 44.4276 41.7585 44.108 41.9006C43.7884 42.0426 43.4168 42.1136 42.993 42.1136C42.4366 42.1136 41.9762 41.9929 41.6116 41.7514C41.247 41.5099 41.0162 41.1572 40.9191 40.6932L41.7146 40.4943C41.7903 40.7879 41.9336 41.008 42.1443 41.1548C42.3573 41.3016 42.6355 41.375 42.9788 41.375C43.3694 41.375 43.6795 41.2921 43.9092 41.1264C44.1412 40.9583 44.2572 40.7571 44.2572 40.5227C44.2572 40.3333 44.1909 40.1747 44.0583 40.0469C43.9258 39.9167 43.7222 39.8196 43.4475 39.7557L42.5384 39.5426C42.0389 39.4242 41.672 39.2408 41.4376 38.9922C41.2056 38.7412 41.0896 38.4276 41.0896 38.0511C41.0896 37.7434 41.176 37.4711 41.3488 37.2344C41.524 36.9976 41.7619 36.8118 42.0626 36.6768C42.3656 36.5419 42.7089 36.4744 43.0924 36.4744C43.6322 36.4744 44.056 36.5928 44.3637 36.8295C44.6739 37.0663 44.894 37.3788 45.0242 37.767Z" fill="#262323"/>
</g>
</svg>
