<svg width="49" height="44" viewBox="0 0 49 44" fill="none" xmlns="http://www.w3.org/2000/svg">
<g opacity="0.5">
<path d="M24.5 12C27.2614 12 29.5 9.76142 29.5 7C29.5 4.23858 27.2614 2 24.5 2C21.7386 2 19.5 4.23858 19.5 7C19.5 9.76142 21.7386 12 24.5 12Z" stroke="#262323" stroke-linecap="round" stroke-linejoin="round"/>
<path d="M33.09 22C33.09 18.13 29.24 15 24.5 15C19.76 15 15.91 18.13 15.91 22" stroke="#262323" stroke-linecap="round" stroke-linejoin="round"/>
<path d="M10.3612 42V34.7273H12.8185C13.3891 34.7273 13.8555 34.8303 14.2177 35.0362C14.5823 35.2398 14.8522 35.5156 15.0273 35.8636C15.2025 36.2116 15.2901 36.5999 15.2901 37.0284C15.2901 37.4569 15.2025 37.8464 15.0273 38.1967C14.8545 38.5471 14.587 38.8265 14.2248 39.0348C13.8626 39.2408 13.3986 39.3438 12.8327 39.3438H11.0714V38.5625H12.8043C13.195 38.5625 13.5086 38.495 13.7454 38.3601C13.9821 38.2251 14.1538 38.0429 14.2603 37.8132C14.3692 37.5812 14.4237 37.3196 14.4237 37.0284C14.4237 36.7372 14.3692 36.4768 14.2603 36.2472C14.1538 36.0175 13.9809 35.8376 13.7418 35.7074C13.5027 35.5748 13.1855 35.5085 12.7901 35.5085H11.2418V42H10.3612ZM16.5952 42V36.5455H17.4048V37.3693H17.4616C17.5611 37.0994 17.741 36.8804 18.0014 36.7124C18.2618 36.5443 18.5554 36.4602 18.8821 36.4602C18.9437 36.4602 19.0206 36.4614 19.1129 36.4638C19.2053 36.4661 19.2751 36.4697 19.3224 36.4744V37.3267C19.294 37.3196 19.2289 37.3089 19.1271 37.2947C19.0277 37.2782 18.9223 37.2699 18.8111 37.2699C18.5459 37.2699 18.3092 37.3255 18.1009 37.4368C17.8949 37.5457 17.7315 37.6972 17.6108 37.8913C17.4924 38.0831 17.4332 38.3021 17.4332 38.5483V42H16.5952ZM22.3658 42.1136C21.8733 42.1136 21.4413 41.9964 21.0696 41.7621C20.7003 41.5277 20.4115 41.1998 20.2031 40.7784C19.9972 40.357 19.8942 39.8646 19.8942 39.3011C19.8942 38.733 19.9972 38.237 20.2031 37.8132C20.4115 37.3894 20.7003 37.0604 21.0696 36.826C21.4413 36.5916 21.8733 36.4744 22.3658 36.4744C22.8582 36.4744 23.2891 36.5916 23.6584 36.826C24.0301 37.0604 24.3189 37.3894 24.5249 37.8132C24.7332 38.237 24.8374 38.733 24.8374 39.3011C24.8374 39.8646 24.7332 40.357 24.5249 40.7784C24.3189 41.1998 24.0301 41.5277 23.6584 41.7621C23.2891 41.9964 22.8582 42.1136 22.3658 42.1136ZM22.3658 41.3608C22.7398 41.3608 23.0476 41.2649 23.2891 41.0732C23.5305 40.8814 23.7093 40.6293 23.8253 40.3168C23.9413 40.0043 23.9993 39.6657 23.9993 39.3011C23.9993 38.9366 23.9413 38.5968 23.8253 38.282C23.7093 37.9671 23.5305 37.7126 23.2891 37.5185C23.0476 37.3243 22.7398 37.2273 22.3658 37.2273C21.9917 37.2273 21.6839 37.3243 21.4425 37.5185C21.201 37.7126 21.0223 37.9671 20.9062 38.282C20.7902 38.5968 20.7322 38.9366 20.7322 39.3011C20.7322 39.6657 20.7902 40.0043 20.9062 40.3168C21.0223 40.6293 21.201 40.8814 21.4425 41.0732C21.6839 41.2649 21.9917 41.3608 22.3658 41.3608ZM28.5456 36.5455V37.2557H25.6053V36.5455H28.5456ZM26.486 42V35.7926C26.486 35.4801 26.5594 35.2197 26.7061 35.0114C26.8529 34.803 27.0435 34.6468 27.2779 34.5426C27.5123 34.4384 27.7596 34.3864 28.0201 34.3864C28.226 34.3864 28.3941 34.4029 28.5243 34.4361C28.6545 34.4692 28.7516 34.5 28.8155 34.5284L28.574 35.2528C28.5314 35.2386 28.4722 35.2209 28.3965 35.1996C28.3231 35.1783 28.226 35.1676 28.1053 35.1676C27.8283 35.1676 27.6283 35.2375 27.5051 35.3771C27.3844 35.5168 27.324 35.7216 27.324 35.9915V42H26.486ZM29.7202 42V36.5455H30.5582V42H29.7202ZM30.1463 35.6364C29.983 35.6364 29.8421 35.5807 29.7237 35.4695C29.6077 35.3582 29.5497 35.2244 29.5497 35.0682C29.5497 34.9119 29.6077 34.7782 29.7237 34.6669C29.8421 34.5556 29.983 34.5 30.1463 34.5C30.3097 34.5 30.4493 34.5556 30.5653 34.6669C30.6837 34.7782 30.7429 34.9119 30.7429 35.0682C30.7429 35.2244 30.6837 35.3582 30.5653 35.4695C30.4493 35.5807 30.3097 35.6364 30.1463 35.6364ZM32.9313 34.7273V42H32.0932V34.7273H32.9313ZM36.7532 42.1136C36.2276 42.1136 35.7743 41.9976 35.3931 41.7656C35.0143 41.5312 34.7219 41.2045 34.516 40.7855C34.3124 40.3641 34.2106 39.8741 34.2106 39.3153C34.2106 38.7566 34.3124 38.2642 34.516 37.8381C34.7219 37.4096 35.0084 37.0758 35.3754 36.8366C35.7447 36.5952 36.1755 36.4744 36.668 36.4744C36.9521 36.4744 37.2326 36.5218 37.5096 36.6165C37.7866 36.7112 38.0387 36.8651 38.266 37.0781C38.4933 37.2888 38.6744 37.5682 38.8093 37.9162C38.9442 38.2642 39.0117 38.6927 39.0117 39.2017V39.5568H34.8072V38.8324H38.1594C38.1594 38.5246 38.0979 38.25 37.9748 38.0085C37.854 37.767 37.6812 37.5765 37.4563 37.4368C37.2338 37.2971 36.971 37.2273 36.668 37.2273C36.3342 37.2273 36.0453 37.3101 35.8015 37.4759C35.56 37.6392 35.3742 37.8523 35.244 38.1151C35.1138 38.3778 35.0487 38.6596 35.0487 38.9602V39.4432C35.0487 39.8551 35.1197 40.2043 35.2617 40.4908C35.4061 40.7749 35.6062 40.9915 35.8619 41.1406C36.1175 41.2874 36.4147 41.3608 36.7532 41.3608C36.9734 41.3608 37.1722 41.33 37.3498 41.2685C37.5297 41.2045 37.6848 41.1098 37.815 40.9844C37.9452 40.8565 38.0458 40.6979 38.1168 40.5085L38.9265 40.7358C38.8413 41.0104 38.698 41.2519 38.4968 41.4602C38.2956 41.6662 38.047 41.8272 37.7511 41.9432C37.4551 42.0568 37.1225 42.1136 36.7532 42.1136Z" fill="#262323"/>
</g>
</svg>
