<svg width="49" height="44" viewBox="0 0 49 44" fill="none" xmlns="http://www.w3.org/2000/svg">
<g opacity="0.5">
<path d="M25.12 20.81C24.78 20.93 24.22 20.93 23.88 20.81C20.98 19.82 14.5 15.69 14.5 8.68998C14.5 5.59998 16.99 3.09998 20.06 3.09998C21.88 3.09998 23.49 3.97998 24.5 5.33998C25.51 3.97998 27.13 3.09998 28.94 3.09998C32.01 3.09998 34.5 5.59998 34.5 8.68998C34.5 15.69 28.02 19.82 25.12 20.81Z" stroke="#262323" stroke-linecap="round" stroke-linejoin="round"/>
<path d="M8.40092 42L6.41229 34.7273H7.30717L8.82706 40.6506H8.89808L10.4464 34.7273H11.4407L12.989 40.6506H13.06L14.5799 34.7273H15.4748L13.4862 42H12.5771L10.9719 36.2045H10.9151L9.31001 42H8.40092ZM16.4585 42V36.5455H17.2965V42H16.4585ZM16.8846 35.6364C16.7212 35.6364 16.5804 35.5807 16.462 35.4695C16.346 35.3582 16.288 35.2244 16.288 35.0682C16.288 34.9119 16.346 34.7782 16.462 34.6669C16.5804 34.5556 16.7212 34.5 16.8846 34.5C17.0479 34.5 17.1876 34.5556 17.3036 34.6669C17.422 34.7782 17.4812 34.9119 17.4812 35.0682C17.4812 35.2244 17.422 35.3582 17.3036 35.4695C17.1876 35.5807 17.0479 35.6364 16.8846 35.6364ZM22.6951 37.767L21.9423 37.9801C21.8949 37.8546 21.8251 37.7327 21.7328 37.6143C21.6428 37.4936 21.5197 37.3942 21.3635 37.3161C21.2072 37.2379 21.0072 37.1989 20.7633 37.1989C20.4295 37.1989 20.1513 37.2758 19.9288 37.4297C19.7086 37.5812 19.5985 37.7741 19.5985 38.0085C19.5985 38.2169 19.6743 38.3814 19.8258 38.5021C19.9773 38.6229 20.2141 38.7235 20.536 38.804L21.3457 39.0028C21.8334 39.1212 22.1968 39.3023 22.4359 39.5462C22.675 39.7876 22.7946 40.099 22.7946 40.4801C22.7946 40.7926 22.7046 41.072 22.5247 41.3182C22.3471 41.5644 22.0985 41.7585 21.7789 41.9006C21.4593 42.0426 21.0877 42.1136 20.6639 42.1136C20.1075 42.1136 19.6471 41.9929 19.2825 41.7514C18.9179 41.5099 18.6871 41.1572 18.59 40.6932L19.3855 40.4943C19.4612 40.7879 19.6045 41.008 19.8152 41.1548C20.0282 41.3016 20.3064 41.375 20.6497 41.375C21.0403 41.375 21.3504 41.2921 21.5801 41.1264C21.8121 40.9583 21.9281 40.7571 21.9281 40.5227C21.9281 40.3333 21.8618 40.1747 21.7292 40.0469C21.5967 39.9167 21.3931 39.8196 21.1184 39.7557L20.2093 39.5426C19.7098 39.4242 19.3429 39.2408 19.1085 38.9922C18.8765 38.7412 18.7605 38.4276 18.7605 38.0511C18.7605 37.7434 18.8469 37.4711 19.0197 37.2344C19.1949 36.9976 19.4328 36.8118 19.7335 36.6768C20.0365 36.5419 20.3798 36.4744 20.7633 36.4744C21.3031 36.4744 21.7269 36.5928 22.0346 36.8295C22.3448 37.0663 22.5649 37.3788 22.6951 37.767ZM24.8942 38.7188V42H24.0561V34.7273H24.8942V37.3977H24.9652C25.093 37.116 25.2848 36.8923 25.5405 36.7266C25.7985 36.5585 26.1418 36.4744 26.5703 36.4744C26.942 36.4744 27.2675 36.549 27.5469 36.6982C27.8262 36.8449 28.0429 37.071 28.1967 37.3764C28.353 37.6795 28.4311 38.0653 28.4311 38.5341V42H27.593V38.5909C27.593 38.1577 27.4806 37.8227 27.2557 37.5859C27.0331 37.3468 26.7242 37.2273 26.3288 37.2273C26.0542 37.2273 25.808 37.2853 25.5902 37.4013C25.3748 37.5173 25.2043 37.6866 25.0788 37.9091C24.9557 38.1316 24.8942 38.4015 24.8942 38.7188ZM30.8024 34.7273V42H29.9643V34.7273H30.8024ZM32.3374 42V36.5455H33.1754V42H32.3374ZM32.7635 35.6364C32.6001 35.6364 32.4593 35.5807 32.3409 35.4695C32.2249 35.3582 32.1669 35.2244 32.1669 35.0682C32.1669 34.9119 32.2249 34.7782 32.3409 34.6669C32.4593 34.5556 32.6001 34.5 32.7635 34.5C32.9268 34.5 33.0665 34.5556 33.1825 34.6669C33.3009 34.7782 33.3601 34.9119 33.3601 35.0682C33.3601 35.2244 33.3009 35.3582 33.1825 35.4695C33.0665 35.5807 32.9268 35.6364 32.7635 35.6364ZM38.574 37.767L37.8212 37.9801C37.7739 37.8546 37.704 37.7327 37.6117 37.6143C37.5217 37.4936 37.3986 37.3942 37.2424 37.3161C37.0861 37.2379 36.8861 37.1989 36.6422 37.1989C36.3084 37.1989 36.0302 37.2758 35.8077 37.4297C35.5875 37.5812 35.4775 37.7741 35.4775 38.0085C35.4775 38.2169 35.5532 38.3814 35.7047 38.5021C35.8562 38.6229 36.093 38.7235 36.415 38.804L37.2246 39.0028C37.7123 39.1212 38.0757 39.3023 38.3148 39.5462C38.5539 39.7876 38.6735 40.099 38.6735 40.4801C38.6735 40.7926 38.5835 41.072 38.4036 41.3182C38.226 41.5644 37.9775 41.7585 37.6578 41.9006C37.3382 42.0426 36.9666 42.1136 36.5428 42.1136C35.9864 42.1136 35.526 41.9929 35.1614 41.7514C34.7968 41.5099 34.566 41.1572 34.4689 40.6932L35.2644 40.4943C35.3401 40.7879 35.4834 41.008 35.6941 41.1548C35.9071 41.3016 36.1853 41.375 36.5286 41.375C36.9192 41.375 37.2293 41.2921 37.459 41.1264C37.691 40.9583 37.807 40.7571 37.807 40.5227C37.807 40.3333 37.7407 40.1747 37.6081 40.0469C37.4756 39.9167 37.272 39.8196 36.9973 39.7557L36.0882 39.5426C35.5887 39.4242 35.2218 39.2408 34.9874 38.9922C34.7554 38.7412 34.6394 38.4276 34.6394 38.0511C34.6394 37.7434 34.7258 37.4711 34.8986 37.2344C35.0738 36.9976 35.3117 36.8118 35.6124 36.6768C35.9154 36.5419 36.2587 36.4744 36.6422 36.4744C37.182 36.4744 37.6058 36.5928 37.9135 36.8295C38.2237 37.0663 38.4438 37.3788 38.574 37.767ZM42.3072 36.5455V37.2557H39.4805V36.5455H42.3072ZM40.3043 35.2386H41.1424V40.4375C41.1424 40.6742 41.1767 40.8518 41.2454 40.9702C41.3164 41.0862 41.4064 41.1643 41.5153 41.2045C41.6265 41.2424 41.7437 41.2614 41.8668 41.2614C41.9592 41.2614 42.0349 41.2566 42.0941 41.2472C42.1533 41.2353 42.2006 41.2259 42.2362 41.2188L42.4066 41.9716C42.3498 41.9929 42.2705 42.0142 42.1687 42.0355C42.0669 42.0592 41.9379 42.071 41.7816 42.071C41.5449 42.071 41.3129 42.0201 41.0856 41.9183C40.8607 41.8165 40.6737 41.6615 40.5245 41.4531C40.3777 41.2448 40.3043 40.982 40.3043 40.6648V35.2386Z" fill="#262323"/>
</g>
</svg>
